<?xml version="1.0" standalone="no"?>
<!DOCTYPE svg PUBLIC "-//W3C//DTD SVG 20010904//EN"
 "http://www.w3.org/TR/2001/REC-SVG-20010904/DTD/svg10.dtd">
<svg version="1.0" xmlns="http://www.w3.org/2000/svg"
 width="200.000000pt" height="200.000000pt" viewBox="0 0 200.000000 200.000000"
 preserveAspectRatio="xMidYMid meet">
<metadata>
Created by potrace 1.16, written by Peter Selinger 2001-2019
</metadata>
<g transform="translate(0.000000,200.000000) scale(0.100000,-0.100000)"
fill="#c0392b" stroke="none">
<path d="M885 1604 c-338 -37 -572 -130 -736 -294 -103 -103 -159 -241 -144
-353 32 -249 294 -455 680 -538 154 -33 412 -38 570 -10 259 46 444 130 583
265 137 132 183 286 133 439 -94 280 -459 474 -928 491 -65 2 -136 2 -158 0z
m375 -85 c181 -29 327 -87 456 -177 197 -139 261 -321 176 -494 -112 -228
-437 -380 -844 -395 -243 -9 -460 33 -645 125 -276 137 -398 358 -306 554 91
194 345 344 663 392 191 29 304 28 500 -5z"/>
<path d="M550 1319 c-117 -38 -216 -134 -241 -234 -16 -64 -6 -164 22 -222 68
-140 246 -223 407 -189 78 16 120 35 172 78 l35 29 5 -48 c4 -41 8 -48 29 -51
12 -2 34 -1 47 2 21 6 24 12 24 52 l0 46 38 -30 c55 -43 96 -62 174 -78 147
-31 300 33 389 162 l30 44 -46 0 c-42 0 -50 -4 -99 -54 -40 -41 -65 -58 -106
-70 -112 -33 -228 -15 -306 49 -65 54 -74 77 -74 196 0 85 3 107 21 135 64
104 216 151 355 109 55 -16 127 -72 150 -116 13 -25 20 -29 59 -29 56 0 57 12
6 79 -130 174 -376 211 -539 81 l-51 -41 -3 48 -3 48 -47 3 -47 3 -3 -50 -3
-50 -50 38 c-101 77 -226 99 -345 60z m244 -79 c57 -22 131 -86 147 -128 5
-13 9 -68 9 -122 0 -96 -1 -100 -32 -141 -18 -23 -57 -56 -87 -72 -75 -42
-189 -49 -273 -17 -92 34 -178 150 -178 240 0 91 89 209 180 240 73 26 165 25
234 0z"/>
</g>
</svg>
